<!DOCTYPE svg PUBLIC "-//W3C//DTD SVG 1.1//EN" "http://www.w3.org/Graphics/SVG/1.1/DTD/svg11.dtd">
<!-- Uploaded to: SVG Repo, www.svgrepo.com, Transformed by: SVG Repo Mixer Tools -->
<svg width="800px" height="800px" viewBox="-3.2 -3.2 38.40 38.40" version="1.1" xmlns="http://www.w3.org/2000/svg" xmlns:xlink="http://www.w3.org/1999/xlink" fill="#000000">
<g id="SVGRepo_bgCarrier" stroke-width="0">
<path transform="translate(-3.2, -3.2), scale(1.2)" d="M16,28.931356991330784C18.219747963444068,28.89722360471294,20.471024340451134,28.081754433834774,22.112398186491596,26.58698421509531C23.651161558591568,25.185659545611422,23.34806252972034,22.607930306755637,24.690237485056258,21.017310951319008C26.4610442938064,18.918717490355498,31.06963821827458,18.74577517376093,31.04576431049241,16C31.02177949769438,13.241469468298925,26.03885745436412,13.388569066624077,24.603424462773354,11.032810570465195C23.223958616512743,8.768902462927482,25.29290174768913,5.092131274795729,23.32015222807726,3.32112442183168C21.47296036225536,1.662835105023909,18.39524478239462,2.657412517786832,16,3.3092128551668587C13.920974407046838,3.8749627914025293,12.433698192666544,5.529808508808323,10.667678876883457,6.7641488924894C9.059467350854502,7.888191202977206,7.353936849456388,8.78722354947792,6.056498928941009,10.259116979936753C4.54528772552983,11.973527979619211,2.4915745519626427,13.714886351069012,2.52650288740794,15.999999999999998C2.561475540766278,18.28801305615137,4.952975478903134,19.741958059619538,6.230464372197417,21.64044402456945C7.4122378049850655,23.39668651534561,8.081616822810775,25.510582589991987,9.778097909357808,26.77665054071128C11.567562219795086,28.11211100081693,13.76740990086659,28.965687853333087,16,28.931356991330784" fill="#7ed0ec" strokewidth="0"/>
</g>
<g id="SVGRepo_tracerCarrier" stroke-linecap="round" stroke-linejoin="round"/>
<g id="SVGRepo_iconCarrier"> <g id="icomoon-ignore"> </g> <path d="M5.867 15.467c-1.173 0-2.133 0.96-2.133 2.133s0.96 2.133 2.133 2.133 2.133-0.96 2.133-2.133-0.96-2.133-2.133-2.133zM5.867 18.667c-0.587 0-1.067-0.48-1.067-1.067s0.48-1.067 1.067-1.067c0.587 0 1.067 0.48 1.067 1.067s-0.48 1.067-1.067 1.067z" fill="#000000"> </path> <path d="M22.933 15.467c-1.173 0-2.133 0.96-2.133 2.133s0.96 2.133 2.133 2.133c1.173 0 2.133-0.96 2.133-2.133s-0.96-2.133-2.133-2.133zM22.933 18.667c-0.587 0-1.067-0.48-1.067-1.067s0.48-1.067 1.067-1.067c0.587 0 1.067 0.48 1.067 1.067s-0.48 1.067-1.067 1.067z" fill="#000000"> </path> <path d="M25.12 11.2l-0.907-4.267c-0.373-1.387-1.44-2.133-2.88-2.133h-13.867c-1.493 0-2.347 0.747-2.773 2.133l-0.96 4.267h-3.733v1.067h3.467v0.053c-1.653 0.107-2.933 1.493-2.933 3.2v7.413h1.6v1.6c0 1.493 1.173 2.667 2.667 2.667s2.667-1.173 2.667-2.667v-1.6h13.867v1.6c0 1.493 1.173 2.667 2.667 2.667s2.667-1.173 2.667-2.667v-1.6h1.6v-7.413c0-1.653-1.28-3.040-2.88-3.2v-0.053h3.413v-1.067h-3.68zM5.707 7.253c0.32-0.96 0.8-1.387 1.76-1.387h13.867c1.013 0 1.6 0.427 1.867 1.333l1.067 5.12h-19.733l1.173-5.067zM6.4 24.533c0 0.907-0.693 1.6-1.6 1.6s-1.6-0.693-1.6-1.6v-1.6h3.2v1.6zM25.6 24.533c0 0.907-0.693 1.6-1.6 1.6s-1.6-0.693-1.6-1.6v-1.6h3.2v1.6zM27.2 15.52v6.347h-25.6v-6.347c0-1.173 0.96-2.133 2.133-2.133h21.333c1.173 0 2.133 0.96 2.133 2.133z" fill="#000000"> </path> </g>
</svg>